<svg xmlns="http://www.w3.org/2000/svg" xmlns:xlink="http://www.w3.org/1999/xlink" width="500" zoomAndPan="magnify" viewBox="0 0 375 374.999991" height="500" preserveAspectRatio="xMidYMid meet" version="1.0"><defs><g/><clipPath id="8abc1a8842"><path d="M 179 202 L 327 202 L 327 240 L 179 240 Z M 179 202 " clip-rule="nonzero"/></clipPath><clipPath id="4810aa9e5f"><path d="M 177.738281 226.011719 L 324.113281 193.234375 L 327.554688 208.601562 L 181.179688 241.378906 Z M 177.738281 226.011719 " clip-rule="nonzero"/></clipPath><clipPath id="dff5ef2a7f"><path d="M 324.113281 193.234375 L 177.738281 226.011719 L 181.179688 241.378906 L 327.554688 208.601562 Z M 324.113281 193.234375 " clip-rule="nonzero"/></clipPath></defs><g fill="#000000" fill-opacity="1"><g transform="translate(43.607715, 273.634144)"><g><path d="M 16.898438 1.269531 C 18.570312 0.90625 20.535156 -0.105469 23.355469 -1.886719 L 25.398438 -3.210938 C 26.203125 -3.53125 28.21875 -4.992188 28.714844 -5.390625 L 30.636719 -7.269531 C 32.699219 -9.175781 34.53125 -11.472656 36.765625 -14.585938 L 38.273438 -16.371094 L 39.066406 -17.417969 C 39.113281 -17.867188 41.210938 -20.949219 41.351562 -20.980469 C 41.765625 -21.070312 47.394531 -30.027344 48.640625 -32.339844 L 52.121094 -37.765625 L 56.414062 -44.824219 C 56.847656 -45.503906 57.421875 -46.210938 58.226562 -46.53125 C 60.023438 -47.652344 62.902344 -49.15625 63.351562 -49.109375 C 63.628906 -49.167969 63.878906 -49.371094 64.15625 -49.429688 C 65.644531 -50.628906 74.167969 -53.65625 74.320312 -52.960938 C 74.351562 -52.820312 74.660156 -52.742188 74.9375 -52.804688 C 75.523438 -52.785156 75.632812 -52.957031 75.789062 -53.574219 C 76.214844 -54.976562 75.367188 -55.519531 73.757812 -54.878906 L 71.480469 -53.945312 C 66.621094 -52.15625 59.9375 -49.382812 59.609375 -48.875 C 59.640625 -48.738281 59.394531 -48.535156 59.085938 -48.613281 C 58.667969 -48.523438 58.746094 -48.832031 59.941406 -50.699219 L 63.441406 -56.710938 C 64.640625 -58.574219 64.964844 -59.082031 65.636719 -60.6875 L 66.398438 -61.875 C 66.535156 -61.90625 66.644531 -62.074219 66.613281 -62.214844 C 66.585938 -62.351562 66.878906 -63 67.207031 -63.507812 C 68.480469 -65.683594 69.507812 -67.65625 70.242188 -68.984375 L 72.125 -73.039062 C 73.992188 -76.507812 78.121094 -84.992188 79.054688 -87.382812 C 80.210938 -90.113281 82.933594 -95.664062 83.402344 -96.203125 C 83.507812 -96.375 83.914062 -97.191406 84.179688 -97.976562 C 84.585938 -98.796875 84.960938 -99.75 85.316406 -100.121094 C 85.722656 -100.9375 86.53125 -102.574219 86.984375 -103.839844 C 87.21875 -104.765625 89.570312 -109.359375 90.765625 -111.226562 L 93.070312 -115.371094 L 94.285156 -117.824219 C 94.609375 -118.332031 94.765625 -118.949219 94.707031 -119.230469 C 94.613281 -119.648438 94.863281 -119.847656 95.25 -120.078125 C 95.886719 -120.507812 99.027344 -121.484375 101.253906 -121.96875 C 104.871094 -122.757812 105.566406 -122.910156 106.664062 -122.566406 C 107.929688 -122.113281 108.238281 -122.035156 108.53125 -122.683594 C 108.859375 -123.191406 108.859375 -123.191406 108.398438 -123.964844 C 107.738281 -124.988281 106.871094 -124.945312 102.804688 -124.203125 C 100.859375 -123.777344 99.046875 -123.382812 98.800781 -123.183594 C 98.382812 -123.09375 97.578125 -122.773438 97.050781 -122.511719 L 94.855469 -121.886719 L 92.6875 -121.121094 C 90.910156 -120.589844 88.636719 -119.652344 87.722656 -119.164062 L 86.28125 -118.410156 C 85.339844 -118.058594 85.230469 -117.890625 84.316406 -117.398438 C 83.820312 -117 83.15625 -116.707031 82.769531 -116.476562 C 81.683594 -116.097656 81.679688 -114.78125 82.792969 -115.027344 C 83.101562 -114.945312 84.015625 -115.4375 84.820312 -115.757812 C 86.367188 -116.679688 89.945312 -118.335938 90.75 -118.65625 L 91.972656 -119.070312 C 92.746094 -119.53125 92.746094 -119.53125 92.804688 -119.25 C 92.835938 -119.113281 92.214844 -117.957031 91.234375 -116.429688 L 89.179688 -112.484375 L 88.121094 -110.648438 L 87.3125 -109.011719 L 85.878906 -106.222656 L 85.023438 -104.140625 C 83.949219 -101.71875 83.761719 -101.238281 83.453125 -101.316406 C 83.453125 -101.316406 83.34375 -101.148438 83.371094 -101.007812 C 83.433594 -100.730469 82.46875 -98.480469 81.519531 -96.8125 C 80.679688 -95.316406 80.601562 -95.007812 80.628906 -94.871094 C 80.660156 -94.730469 80.550781 -94.5625 80.414062 -94.53125 C 80.273438 -94.5 79.386719 -92.558594 77.5 -88.5 L 75.753906 -84.476562 L 75.566406 -83.996094 L 75.054688 -83.011719 L 74.164062 -81.066406 C 73.839844 -80.558594 73.542969 -79.910156 73.574219 -79.769531 C 73.605469 -79.632812 73.417969 -79.152344 73.199219 -78.8125 L 72.25 -77.148438 L 69.230469 -70.949219 L 68.855469 -69.992188 C 68.746094 -69.824219 68.527344 -69.484375 68.496094 -69.625 C 68.328125 -69.730469 68.359375 -69.59375 68.386719 -69.453125 C 68.480469 -69.035156 64.992188 -62.296875 62.925781 -59.078125 L 61.105469 -56.054688 C 59.890625 -53.601562 57.171875 -49.363281 55.976562 -47.5 C 55.320312 -46.480469 54.824219 -46.082031 53.386719 -45.332031 C 51.171875 -44.117188 48.214844 -42.304688 47.332031 -41.675781 C 45.566406 -40.414062 44.652344 -39.925781 44.621094 -40.0625 C 44.621094 -40.0625 44.480469 -40.035156 44.265625 -39.695312 C 44.15625 -39.523438 42.777344 -38.496094 41.289062 -37.296875 C 38.390625 -35.207031 33.460938 -31.066406 31.152344 -28.960938 L 24.203125 -22.050781 C 23.054688 -20.632812 20.132812 -16.640625 19.511719 -15.484375 C 18.71875 -14.4375 16.597656 -9.453125 16.660156 -9.175781 C 16.691406 -9.035156 16.582031 -8.867188 16.503906 -8.558594 C 16.394531 -8.390625 16.128906 -7.601562 15.972656 -6.984375 C 15.953125 -6.398438 15.53125 -4.992188 15.1875 -3.898438 C 14.734375 -2.632812 14.5 -1.707031 14.574219 -0.703125 C 14.675781 0.441406 14.707031 0.582031 15.246094 1.046875 C 15.785156 1.511719 15.953125 1.621094 16.898438 1.269531 Z M 18.015625 -0.285156 C 16.269531 0.386719 15.960938 0.308594 15.777344 -0.527344 C 15.515625 -1.054688 15.644531 -1.808594 16.378906 -4.449219 C 16.851562 -6.300781 17.242188 -7.84375 17.351562 -8.015625 C 17.320312 -8.152344 17.289062 -8.292969 17.429688 -8.324219 L 17.804688 -9.28125 C 18.195312 -10.824219 18.710938 -11.808594 19.628906 -13.613281 C 20.578125 -15.28125 23.546875 -19.71875 23.960938 -19.808594 L 24.179688 -20.148438 C 24.257812 -20.457031 25.191406 -21.535156 26.261719 -22.644531 L 28.867188 -25.398438 C 29.191406 -25.90625 29.796875 -26.476562 30.183594 -26.707031 C 31.066406 -27.335938 32.632812 -28.847656 33.101562 -29.386719 C 33.316406 -29.722656 33.566406 -29.925781 33.566406 -29.925781 C 33.703125 -29.953125 34.0625 -30.324219 34.277344 -30.664062 C 34.667969 -30.894531 35.132812 -31.433594 35.519531 -31.664062 C 35.90625 -31.894531 36.152344 -32.09375 36.125 -32.230469 C 36.125 -32.230469 36.480469 -32.601562 36.867188 -32.832031 C 37.253906 -33.0625 38.027344 -33.523438 38.386719 -33.890625 L 39.953125 -35.398438 L 41.441406 -36.601562 C 41.6875 -36.800781 42.074219 -37.03125 42.355469 -37.089844 C 42.492188 -37.121094 42.988281 -37.519531 43.484375 -37.921875 C 43.980469 -38.320312 44.507812 -38.582031 44.785156 -38.640625 C 44.925781 -38.671875 45.035156 -38.84375 45.003906 -38.980469 C 45.113281 -39.152344 45.609375 -39.550781 46.382812 -40.011719 C 48.597656 -41.222656 49.371094 -41.683594 50.113281 -42.285156 C 50.890625 -42.742188 53.488281 -44.1875 53.90625 -44.277344 C 54.046875 -44.308594 54.078125 -44.167969 53.96875 -44 C 53.59375 -43.042969 51.042969 -38.695312 49.410156 -36.152344 C 48.292969 -34.597656 47.125 -32.589844 46.582031 -31.742188 C 45.011719 -28.921875 35.75 -15.238281 33.34375 -12.234375 C 30.859375 -8.921875 29.789062 -7.8125 27.914062 -6.382812 C 25.789062 -4.753906 22.335938 -2.542969 22.277344 -2.820312 L 22.167969 -2.648438 C 22.089844 -2.339844 19.488281 -0.898438 18.015625 -0.285156 Z M 18.015625 -0.285156 "/></g></g></g><g fill="#000000" fill-opacity="1"><g transform="translate(138.24653, 252.982084)"><g><path d="M -5.230469 -38.664062 C -4.640625 -38.644531 -4.085938 -38.765625 -3.558594 -39.027344 L -3.140625 -39.117188 C -3.140625 -39.117188 -0.757812 -40.222656 1.613281 -42.050781 L 8.757812 -47.402344 C 9.003906 -47.601562 8.914062 -48.019531 8.605469 -48.097656 L 8.433594 -48.207031 L 8.015625 -48.113281 L 7.769531 -47.914062 C 2.222656 -43.933594 -1.589844 -41.351562 -3.304688 -40.539062 C -3.304688 -40.539062 -4.992188 -39.589844 -5.253906 -40.117188 C -6.085938 -41.246094 -5.445312 -42.988281 -4.929688 -43.976562 C -4.527344 -44.792969 -3.5 -46.769531 -5.167969 -46.402344 C -5.445312 -46.34375 -5.894531 -46.390625 -5.925781 -46.53125 C -6.1875 -47.054688 -6.574219 -46.828125 -8.664062 -45.058594 C -10.511719 -43.488281 -12.789062 -41.242188 -14.15625 -39.484375 C -14.730469 -38.777344 -14.949219 -38.4375 -14.859375 -38.019531 C -14.707031 -37.324219 -14.257812 -37.277344 -13.421875 -37.457031 C -12.726562 -37.609375 -10.246094 -39.609375 -9.316406 -40.6875 C -8.414062 -41.90625 -6.820312 -43.273438 -6.789062 -43.132812 L -6.992188 -42.070312 C -7.179688 -41.589844 -7.199219 -41.003906 -7.105469 -40.585938 C -7.125 -40 -7.035156 -39.582031 -6.496094 -39.117188 C -6.125 -38.757812 -5.785156 -38.542969 -5.230469 -38.664062 Z M -13.417969 -38.769531 L -12.703125 -39.511719 C -12.050781 -40.527344 -10.160156 -42.542969 -8.53125 -43.773438 C -7.324219 -44.914062 -7.042969 -44.972656 -6.984375 -44.695312 C -6.953125 -44.554688 -7.308594 -44.1875 -7.695312 -43.957031 C -8.6875 -43.15625 -9.152344 -42.617188 -9.371094 -42.277344 C -9.589844 -41.941406 -11.652344 -40.03125 -12.644531 -39.230469 Z M -13.417969 -38.769531 "/></g></g></g><g fill="#000000" fill-opacity="1"><g transform="translate(156.060893, 249.094638)"><g><path d="M -62.214844 30.925781 C -61.519531 30.773438 -59.195312 29.394531 -58.621094 28.683594 L -55.320312 25.777344 C -54.46875 25.007812 -53.476562 24.207031 -51.492188 22.609375 C -50.5 21.808594 -48.191406 19.703125 -45.988281 17.761719 C -43.570312 15.484375 -40.25 11.992188 -38.386719 9.835938 C -37.8125 9.125 -37.316406 8.726562 -37.175781 8.695312 C -37.175781 8.695312 -37.070312 8.527344 -37.097656 8.386719 C -36.960938 8.355469 -36.523438 7.679688 -35.917969 7.109375 L -34.414062 5.324219 C -32.085938 2.628906 -27.582031 -3.457031 -23.199219 -10.101562 C -18.785156 -16.605469 -17.667969 -18.160156 -16.972656 -18.3125 L -15.175781 -19.433594 C -13.628906 -20.355469 -9.726562 -22.519531 -8.394531 -23.101562 L -3.179688 -25.257812 C -2.542969 -25.6875 -1.183594 -26.132812 -0.488281 -26.285156 L 1.710938 -26.910156 C 2.761719 -27.429688 5.160156 -27.808594 5.1875 -27.667969 C 5.1875 -27.667969 5.21875 -27.527344 5.082031 -27.5 C 4.800781 -27.4375 4.707031 -26.542969 5.015625 -26.464844 C 5.382812 -26.105469 8.464844 -27.363281 8.929688 -27.902344 C 9.75 -28.808594 9.058594 -29.972656 7.917969 -29.867188 C 6.464844 -29.84375 2.984375 -29.082031 0.402344 -28.226562 L -2.707031 -27.113281 C -3.097656 -26.882812 -3.652344 -26.757812 -3.761719 -26.589844 C -4.007812 -26.390625 -4.289062 -26.328125 -4.566406 -26.269531 C -4.84375 -26.207031 -5.261719 -26.117188 -5.230469 -25.976562 C -5.339844 -25.808594 -5.867188 -25.546875 -6.5625 -25.394531 C -7.226562 -25.105469 -8.976562 -24.429688 -10.417969 -23.679688 L -15.152344 -21.332031 C -15.648438 -20.933594 -15.460938 -21.414062 -14.296875 -23.417969 C -11.03125 -28.503906 -4.007812 -39.074219 -2.507812 -42.902344 C -2.507812 -42.902344 -2.539062 -43.039062 -2.402344 -43.070312 C -2.152344 -43.269531 -1.359375 -44.320312 -1.144531 -44.65625 C -1.035156 -44.828125 -0.984375 -45.273438 -1.015625 -45.414062 C -1.078125 -45.691406 -1.386719 -45.769531 -1.554688 -45.878906 L -1.726562 -45.988281 C -2.035156 -46.066406 -2.3125 -46.007812 -2.699219 -45.777344 C -2.808594 -45.605469 -2.945312 -45.578125 -3.570312 -44.417969 C -3.648438 -44.109375 -3.867188 -43.773438 -4.113281 -43.570312 L -6.097656 -41.972656 C -6.238281 -41.941406 -6.484375 -41.742188 -6.59375 -41.574219 C -6.839844 -41.371094 -7.585938 -40.773438 -8.359375 -40.3125 C -10.652344 -38.792969 -10.742188 -39.210938 -9.09375 -42.339844 L -8.765625 -42.847656 L -8.410156 -43.21875 L -8.164062 -43.417969 L -7.945312 -43.757812 C -7.726562 -44.097656 -7.957031 -44.484375 -8.128906 -44.589844 C -8.328125 -44.839844 -8.605469 -44.777344 -8.882812 -44.71875 L -9.441406 -44.597656 C -9.550781 -44.425781 -9.65625 -44.257812 -9.628906 -44.117188 L -10.09375 -43.578125 L -11.367188 -41.40625 C -11.804688 -40.726562 -12.085938 -39.351562 -11.828125 -38.828125 L -11.535156 -38.160156 C -11.503906 -38.023438 -11.164062 -37.804688 -10.855469 -37.726562 C -10.238281 -37.570312 -9.960938 -37.628906 -9.046875 -38.121094 L -7.667969 -39.152344 C -7.171875 -39.550781 -5.683594 -40.75 -5.050781 -41.179688 L -13.722656 -27.476562 L -14.890625 -25.472656 C -15.480469 -24.179688 -19.101562 -18.722656 -19.738281 -18.292969 C -19.988281 -18.09375 -20.480469 -17.691406 -20.761719 -17.632812 C -21.039062 -17.570312 -21.285156 -17.371094 -21.394531 -17.203125 C -21.503906 -17.03125 -22.03125 -16.769531 -22.527344 -16.371094 L -24.324219 -15.25 C -24.820312 -14.851562 -25.347656 -14.589844 -25.484375 -14.558594 C -25.625 -14.527344 -25.761719 -14.5 -25.734375 -14.359375 C -25.703125 -14.21875 -25.980469 -14.160156 -26.230469 -13.960938 C -27.035156 -13.636719 -32.410156 -9.550781 -33.867188 -8.210938 L -37.882812 -4.5625 C -38.101562 -4.222656 -38.347656 -4.023438 -38.488281 -3.996094 C -38.765625 -3.933594 -40.71875 -2.195312 -41.046875 -1.6875 C -41.265625 -1.347656 -41.511719 -1.148438 -41.511719 -1.148438 C -41.542969 -1.285156 -41.652344 -1.117188 -41.761719 -0.949219 L -42.722656 -0.0078125 L -44.011719 1.4375 C -43.902344 1.269531 -44.335938 1.949219 -44.753906 2.039062 C -44.722656 2.179688 -45.050781 2.6875 -45.625 3.394531 L -48.167969 6.429688 L -49.785156 8.386719 C -50.933594 9.800781 -52.378906 11.867188 -53.277344 13.085938 L -55.1875 15.6875 C -56.523438 17.582031 -59.058594 21.34375 -60.691406 23.886719 C -62.429688 26.601562 -63.457031 28.574219 -63.523438 29.609375 C -63.511719 30.335938 -62.773438 31.046875 -62.214844 30.925781 Z M -62.101562 29.445312 C -62.40625 28.050781 -53.859375 15.105469 -48.65625 8.867188 L -47.867188 7.820312 C -47.757812 7.652344 -47.507812 7.453125 -47.371094 7.421875 C -47.09375 7.359375 -46.984375 7.191406 -47.011719 7.050781 C -47.074219 6.773438 -46.996094 6.464844 -46.746094 6.265625 C -46.46875 6.203125 -45.863281 5.632812 -45.539062 5.125 L -44.390625 3.707031 L -44.140625 3.507812 L -43.457031 2.628906 C -43.132812 2.121094 -42.773438 1.753906 -42.636719 1.722656 C -42.496094 1.691406 -42.359375 1.660156 -42.386719 1.523438 C -42.417969 1.382812 -41.921875 0.984375 -41.457031 0.445312 L -39.316406 -1.773438 C -38.601562 -2.511719 -37.859375 -3.109375 -37.859375 -3.109375 C -37.71875 -3.140625 -37.472656 -3.339844 -37.222656 -3.542969 C -37.003906 -3.878906 -36.648438 -4.25 -36.261719 -4.480469 C -35.875 -4.710938 -35.519531 -5.078125 -35.269531 -5.28125 C -34.617188 -6.296875 -28.664062 -11.09375 -26.453125 -12.308594 C -25.675781 -12.769531 -24.902344 -13.226562 -24.683594 -13.566406 C -24.4375 -13.765625 -24.082031 -14.136719 -23.941406 -14.167969 C -23.800781 -14.199219 -23.136719 -14.488281 -22.671875 -15.027344 C -21.539062 -15.859375 -21.292969 -16.058594 -21.230469 -15.777344 C -21.199219 -15.640625 -24.761719 -9.90625 -26.609375 -7.023438 C -28.925781 -3.601562 -31.191406 -0.628906 -33.023438 1.667969 L -33.816406 2.714844 L -35.898438 5.210938 C -36.007812 5.378906 -36.222656 5.71875 -36.609375 5.949219 C -36.828125 6.285156 -37.433594 6.855469 -37.789062 7.226562 C -37.976562 7.703125 -38.691406 8.441406 -39.046875 8.8125 L -40.117188 9.921875 C -40.800781 10.800781 -41.980469 12.078125 -44.011719 14.125 L -46.261719 16.511719 C -46.835938 17.21875 -50.386719 20.328125 -52.726562 22.296875 L -56.414062 25.433594 C -60.601562 28.972656 -62.011719 29.863281 -62.101562 29.445312 Z M -62.101562 29.445312 "/></g></g></g><g fill="#000000" fill-opacity="1"><g transform="translate(175.127842, 244.933853)"><g><path d="M -5.457031 -35.695312 C -1.929688 -36.90625 4.199219 -39.554688 9.25 -43.136719 C 12.535156 -45.457031 13.089844 -45.578125 17.335938 -48.835938 L 17.695312 -49.207031 C 19.429688 -50.605469 18.007812 -50.441406 17.480469 -50.179688 C 17.511719 -50.039062 9.117188 -44.417969 9.144531 -44.277344 C 4.421875 -41.207031 -0.394531 -38.550781 -6.84375 -36.707031 C -9.210938 -36.191406 -10.195312 -36.703125 -10.625 -37.339844 C -10.855469 -37.726562 -11.410156 -38.917969 -10.925781 -40.042969 L -10.519531 -40.863281 C -9.136719 -43.203125 -6.5625 -46.101562 -5.339844 -46.511719 L -4.78125 -46.632812 L -5.324219 -45.785156 C -5.621094 -45.136719 -5.808594 -44.660156 -5.640625 -44.550781 L -5.410156 -44.164062 C -5.378906 -44.023438 -5.101562 -44.085938 -4.960938 -44.117188 C -4.433594 -44.375 -3.003906 -47.167969 -3.261719 -47.695312 C -3.355469 -48.113281 -4.3125 -48.484375 -4.835938 -48.226562 C -6.585938 -47.550781 -9.484375 -45.460938 -11.441406 -42.410156 C -12.53125 -40.714844 -13.011719 -39.589844 -12.679688 -38.058594 C -12.40625 -36.804688 -11.175781 -35.179688 -9.277344 -35.15625 C -8.101562 -35.121094 -7.515625 -35.101562 -5.457031 -35.695312 Z M -5.457031 -35.695312 "/></g></g></g><g fill="#000000" fill-opacity="1"><g transform="translate(202.26692, 239.01157)"><g><path d="M 33.398438 -87.480469 C 33.03125 -87.835938 31.636719 -87.53125 30.308594 -86.949219 L 28.835938 -86.339844 C 28.03125 -86.015625 26.730469 -85.296875 26.234375 -84.894531 L 25.183594 -84.375 C 22.441406 -82.902344 18.910156 -80.382812 16.351562 -78.074219 L 15.003906 -76.902344 L 13.933594 -75.796875 L 11.902344 -73.75 C 10.472656 -72.269531 8.828125 -70.453125 8.71875 -70.285156 L 5.027344 -65.832031 L 2.648438 -62.691406 L -1.171875 -57.480469 C -1.714844 -56.632812 -2.367188 -55.617188 -2.726562 -55.246094 L -3.886719 -54.558594 C -4.519531 -54.125 -5.046875 -53.867188 -5.015625 -53.726562 C -5.015625 -53.726562 -5.125 -53.558594 -5.265625 -53.527344 C -5.40625 -53.496094 -5.792969 -53.265625 -6.289062 -52.867188 C -6.675781 -52.636719 -6.921875 -52.4375 -7.03125 -52.265625 L -8.300781 -51.40625 L -12.28125 -48.933594 C -12.667969 -48.703125 -13.164062 -48.304688 -13.273438 -48.132812 C -13.429688 -47.515625 -13.230469 -47.269531 -12.675781 -47.390625 C -12.394531 -47.449219 -11.871094 -47.710938 -11.34375 -47.972656 L -10.101562 -48.972656 C -9.746094 -49.339844 -9.21875 -49.601562 -8.695312 -49.863281 L -6.371094 -51.246094 C -6.261719 -51.414062 -5.984375 -51.476562 -5.734375 -51.675781 C -5.765625 -51.8125 -4.851562 -52.304688 -4.683594 -52.195312 C -4.683594 -52.195312 -5.414062 -50.871094 -6.53125 -49.3125 L -10.28125 -43.101562 L -10.714844 -42.421875 L -11.632812 -40.617188 L -12.582031 -38.953125 C -12.910156 -38.445312 -13.34375 -37.765625 -13.222656 -37.210938 C -13.132812 -36.792969 -12.515625 -36.636719 -12.207031 -36.558594 C -11.757812 -36.507812 -11.648438 -36.679688 -11.539062 -36.847656 L -11.183594 -37.21875 L -10.609375 -37.925781 L -10.28125 -38.433594 L -9.925781 -38.804688 L -9.679688 -39.003906 L -8.371094 -41.039062 L -7.628906 -41.636719 L -7.488281 -41.667969 L -6.777344 -42.40625 C -6.558594 -42.746094 -5.921875 -43.175781 -5.398438 -43.4375 L -3.988281 -44.328125 C -3.601562 -44.558594 -3.351562 -44.757812 -3.320312 -44.621094 C -3.292969 -44.480469 -3.292969 -44.480469 -3.429688 -44.449219 C -3.570312 -44.417969 -4.269531 -42.953125 -4.503906 -42.027344 L -4.742188 -41.101562 C -5.023438 -39.726562 -4.902344 -39.171875 -4.085938 -38.765625 C -3.605469 -38.578125 -3.296875 -38.5 -2.910156 -38.730469 L -2.664062 -38.929688 C -1.582031 -39.3125 1.8125 -41.804688 2.308594 -42.203125 C 3.082031 -42.664062 2.773438 -42.742188 4.539062 -44.003906 C 4.820312 -44.0625 5.253906 -44.742188 5.890625 -45.171875 C 8.507812 -47.203125 6.214844 -45.679688 8.648438 -47.230469 C 9.71875 -48.339844 8.742188 -48.128906 8.1875 -48.007812 L 5.042969 -45.714844 C 3.414062 -44.484375 -1 -41.335938 -2.269531 -40.476562 L -2.796875 -40.214844 L -3.074219 -40.152344 C -3.214844 -40.125 -3.199219 -40.710938 -2.960938 -41.636719 L -2.914062 -42.085938 C -2.757812 -42.703125 -2.136719 -43.859375 -1.15625 -45.382812 C -0.75 -46.203125 -0.640625 -46.371094 -0.84375 -46.617188 C -1.210938 -46.976562 -1.769531 -46.855469 -3.457031 -45.902344 C -5.5 -44.582031 -6.660156 -43.890625 -7.652344 -43.089844 C -7.792969 -43.0625 -7.761719 -42.921875 -7.902344 -42.890625 C -8.148438 -42.691406 -8.398438 -42.492188 -8.566406 -42.601562 L -8.628906 -42.878906 C -8.363281 -43.664062 -5.425781 -48.242188 -3.355469 -51.464844 L -1.507812 -54.347656 L -0.902344 -54.917969 L 3.871094 -58.4375 C 5.496094 -59.667969 6.519531 -60.328125 6.765625 -60.527344 L 8.921875 -62.015625 C 9.914062 -62.816406 10.933594 -63.476562 11.074219 -63.507812 C 11.351562 -63.570312 11.988281 -64 12.484375 -64.398438 C 15.101562 -66.429688 20.867188 -70.746094 22.183594 -72.054688 L 22.957031 -72.515625 C 23.347656 -72.746094 23.5625 -73.085938 23.535156 -73.226562 C 23.640625 -73.394531 23.890625 -73.59375 24.136719 -73.792969 C 24.417969 -73.855469 24.914062 -74.253906 25.269531 -74.625 L 27.082031 -76.332031 C 27.65625 -77.042969 28.867188 -78.179688 29.550781 -79.058594 L 31.304688 -81.042969 C 31.910156 -81.613281 33.324219 -83.816406 33.667969 -84.914062 C 34.152344 -86.039062 33.9375 -87.015625 33.398438 -87.480469 Z M 32.464844 -85.089844 L 31.839844 -83.933594 C 31.652344 -83.453125 31.355469 -82.804688 31.21875 -82.777344 L 30.070312 -81.359375 C 29.417969 -80.339844 27.632812 -78.492188 26.066406 -76.984375 L 21.910156 -73.308594 L 20.421875 -72.109375 L 19.074219 -70.941406 L 16.703125 -69.109375 C 15.988281 -68.371094 15.105469 -67.742188 14.71875 -67.511719 L 12.921875 -66.390625 L 10.414062 -64.53125 L 7.625 -62.609375 C 6.988281 -62.179688 6.355469 -61.75 6.214844 -61.71875 C 6.074219 -61.6875 5.578125 -61.289062 4.945312 -60.859375 C 4.449219 -60.457031 3.8125 -60.027344 3.675781 -59.996094 C 3.535156 -59.96875 2.929688 -59.398438 2.1875 -58.796875 C 1.304688 -58.167969 0.917969 -57.9375 0.886719 -58.078125 C 0.855469 -58.214844 0.796875 -58.496094 0.933594 -58.523438 L 2.300781 -60.28125 C 4.539062 -63.394531 8.746094 -68.832031 9.023438 -68.890625 L 9.953125 -69.96875 C 11.679688 -72.097656 15.492188 -75.992188 18.578125 -78.558594 C 20.949219 -80.390625 24.265625 -82.570312 26.617188 -83.8125 L 28.691406 -84.996094 C 29.078125 -85.226562 31.386719 -86.019531 31.832031 -85.972656 C 32.140625 -85.894531 32.3125 -85.785156 32.511719 -85.535156 C 32.542969 -85.398438 32.464844 -85.089844 32.464844 -85.089844 Z M 32.464844 -85.089844 "/></g></g></g><g fill="#000000" fill-opacity="1"><g transform="translate(219.942116, 235.154493)"><g><path d="M -5.230469 -38.664062 C -4.640625 -38.644531 -4.085938 -38.765625 -3.558594 -39.027344 L -3.140625 -39.117188 C -3.140625 -39.117188 -0.757812 -40.222656 1.613281 -42.050781 L 8.757812 -47.402344 C 9.003906 -47.601562 8.914062 -48.019531 8.605469 -48.097656 L 8.433594 -48.207031 L 8.015625 -48.113281 L 7.769531 -47.914062 C 2.222656 -43.933594 -1.589844 -41.351562 -3.304688 -40.539062 C -3.304688 -40.539062 -4.992188 -39.589844 -5.253906 -40.117188 C -6.085938 -41.246094 -5.445312 -42.988281 -4.929688 -43.976562 C -4.527344 -44.792969 -3.5 -46.769531 -5.167969 -46.402344 C -5.445312 -46.34375 -5.894531 -46.390625 -5.925781 -46.53125 C -6.1875 -47.054688 -6.574219 -46.828125 -8.664062 -45.058594 C -10.511719 -43.488281 -12.789062 -41.242188 -14.15625 -39.484375 C -14.730469 -38.777344 -14.949219 -38.4375 -14.859375 -38.019531 C -14.707031 -37.324219 -14.257812 -37.277344 -13.421875 -37.457031 C -12.726562 -37.609375 -10.246094 -39.609375 -9.316406 -40.6875 C -8.414062 -41.90625 -6.820312 -43.273438 -6.789062 -43.132812 L -6.992188 -42.070312 C -7.179688 -41.589844 -7.199219 -41.003906 -7.105469 -40.585938 C -7.125 -40 -7.035156 -39.582031 -6.496094 -39.117188 C -6.125 -38.757812 -5.785156 -38.542969 -5.230469 -38.664062 Z M -13.417969 -38.769531 L -12.703125 -39.511719 C -12.050781 -40.527344 -10.160156 -42.542969 -8.53125 -43.773438 C -7.324219 -44.914062 -7.042969 -44.972656 -6.984375 -44.695312 C -6.953125 -44.554688 -7.308594 -44.1875 -7.695312 -43.957031 C -8.6875 -43.15625 -9.152344 -42.617188 -9.371094 -42.277344 C -9.589844 -41.941406 -11.652344 -40.03125 -12.644531 -39.230469 Z M -13.417969 -38.769531 "/></g></g></g><g fill="#000000" fill-opacity="1"><g transform="translate(237.756479, 231.267047)"><g><path d="M 0.0703125 -39.089844 L 2.902344 -40.144531 C 5.425781 -41.28125 9.792969 -43.984375 9.792969 -43.984375 L 11.558594 -45.242188 L 12.9375 -46.273438 L 13.683594 -46.871094 C 14.675781 -47.671875 14.8125 -47.703125 15.835938 -48.363281 C 17.246094 -49.253906 17.882812 -49.683594 16.816406 -49.890625 C 16.507812 -49.96875 15.59375 -49.476562 12.945312 -47.585938 C 11.039062 -46.296875 8.359375 -44.542969 7.058594 -43.824219 C 0.832031 -40.277344 -2.414062 -39.132812 -2.808594 -40.941406 C -3.070312 -41.464844 -2.945312 -42.222656 -2.183594 -43.410156 C -1.34375 -44.90625 -1.859375 -47.273438 -3.613281 -45.285156 C -3.832031 -44.945312 -4.464844 -44.515625 -4.960938 -44.117188 L -8.988281 -41.195312 L -8.347656 -42.9375 C -8.113281 -43.867188 -8.113281 -43.867188 -8.652344 -44.332031 C -9.363281 -44.90625 -9.886719 -44.644531 -10.558594 -43.039062 L -11.257812 -41.574219 C -11.386719 -40.820312 -12.136719 -38.90625 -12.570312 -38.226562 L -12.480469 -37.808594 C -12.667969 -37.332031 -12.128906 -36.867188 -11.570312 -36.988281 C -11.402344 -36.878906 -11.042969 -37.25 -10.65625 -37.476562 C -9.585938 -38.585938 -5.789062 -41.894531 -4.546875 -42.894531 L -4.410156 -42.925781 L -4.566406 -42.308594 L -4.535156 -42.167969 L -4.722656 -41.6875 C -4.988281 -40.902344 -4.347656 -39.292969 -3.699219 -38.996094 C -2.710938 -38.484375 -1.289062 -38.648438 0.0703125 -39.089844 Z M 0.0703125 -39.089844 "/></g></g></g><g fill="#000000" fill-opacity="1"><g transform="translate(263.921325, 225.55736)"><g><path d="M -4.027344 -33.820312 L -1.273438 -39.234375 C 1.3125 -44.757812 4.597656 -50.429688 6.535156 -52.894531 L 8.527344 -55.808594 L 10.140625 -57.761719 L 11.894531 -59.75 C 12.605469 -60.488281 14.746094 -62.707031 15.292969 -63.554688 L 17.015625 -65.679688 C 18.441406 -67.15625 21.53125 -71.039062 22.589844 -72.875 C 24.546875 -75.925781 25.496094 -77.589844 26.386719 -79.535156 C 27.164062 -81.308594 27.351562 -81.785156 27.089844 -82.3125 C 26.769531 -83.117188 26.105469 -82.824219 24.753906 -81.65625 C 24.289062 -81.117188 23.21875 -80.007812 22.675781 -79.160156 L 20.703125 -76.835938 C 19.632812 -75.726562 17.753906 -72.984375 16.152344 -70.300781 C 14.875 -68.128906 14.550781 -67.621094 12.777344 -65.046875 L 11.691406 -63.351562 L 7.476562 -56.597656 C 6.714844 -55.414062 4.824219 -53.394531 2.839844 -51.796875 C 1.707031 -50.964844 0.5 -49.828125 -0.105469 -49.257812 L -2.027344 -47.378906 L -2.882812 -46.609375 L -3.390625 -46.9375 C -4.636719 -47.976562 -6.136719 -47.503906 -8.585938 -45.367188 C -10.183594 -43.996094 -12.886719 -40.34375 -13.636719 -38.433594 C -14.304688 -36.828125 -13.707031 -36.085938 -12.296875 -36.976562 C -10.996094 -37.695312 -9.011719 -39.296875 -8.050781 -40.234375 L -7.554688 -40.632812 C -7.414062 -40.664062 -6.949219 -41.203125 -6.34375 -41.773438 L -5.105469 -42.773438 L -4.003906 -43.742188 L 0.0898438 -47.695312 C 1.191406 -48.667969 2.042969 -49.433594 2.183594 -49.464844 C 2.183594 -49.464844 1.777344 -48.648438 1.203125 -47.941406 C -0.210938 -45.734375 -5.582031 -34.941406 -5.460938 -34.382812 C -5.171875 -33.71875 -4.382812 -33.453125 -4.027344 -33.820312 Z M 13 -62.03125 C 12.363281 -61.601562 13.71875 -64.085938 15.953125 -67.199219 L 17.371094 -69.402344 C 18.070312 -70.867188 18.832031 -72.054688 19.839844 -73.441406 L 20.710938 -74.796875 L 22.1875 -76.722656 C 25.335938 -80.324219 25.863281 -80.585938 24.324219 -77.625 C 23.433594 -75.683594 22.640625 -74.632812 20 -70.703125 C 18.992188 -69.316406 17.625 -67.5625 16.800781 -66.652344 L 14.96875 -64.359375 Z M -11.359375 -39.367188 C -11.777344 -39.273438 -11.046875 -40.601562 -10.039062 -41.988281 L -9.136719 -43.203125 C -9.027344 -43.375 -8.671875 -43.742188 -8.035156 -44.175781 L -6.796875 -45.171875 C -6.410156 -45.402344 -5.433594 -45.617188 -5.125 -45.539062 C -4.785156 -45.320312 -5.300781 -44.332031 -6.292969 -43.535156 C -6.898438 -42.964844 -7.394531 -42.566406 -7.5 -42.394531 C -7.640625 -42.363281 -8.523438 -41.734375 -9.515625 -40.933594 C -10.367188 -40.164062 -11.222656 -39.398438 -11.359375 -39.367188 Z M -11.359375 -39.367188 "/></g></g></g><g fill="#000000" fill-opacity="1"><g transform="translate(286.050102, 220.728424)"><g><path d="M -11.925781 -36.617188 C -11.738281 -37.097656 -11.027344 -37.835938 -10.5625 -38.375 L -9.273438 -39.820312 C -8.835938 -40.5 -8.09375 -41.101562 -5.476562 -43.128906 L -4.125 -44.296875 C -3.492188 -44.730469 -3.351562 -44.757812 -2.703125 -44.460938 C -1.777344 -44.226562 -0.695312 -44.609375 1.101562 -45.730469 L 3.085938 -47.332031 L 4.464844 -48.359375 C 4.710938 -48.558594 5.378906 -48.851562 5.65625 -48.910156 C 6.074219 -49.003906 6.320312 -49.203125 6.679688 -49.570312 C 7.332031 -50.589844 7.378906 -51.039062 7.011719 -51.394531 C 6.609375 -51.890625 6.191406 -51.800781 5.261719 -50.722656 C 4.765625 -50.320312 4.410156 -49.953125 4.269531 -49.921875 C 4.128906 -49.890625 3.742188 -49.660156 3.386719 -49.292969 C 2.316406 -48.183594 -0.195312 -46.324219 -1.027344 -46.140625 C -1.308594 -46.078125 -1.476562 -46.1875 -1.707031 -46.574219 C -2.027344 -47.378906 -2.476562 -47.429688 -3.21875 -46.828125 C -3.4375 -46.488281 -6.085938 -44.597656 -6.691406 -44.03125 L -7.824219 -43.199219 C -8.179688 -42.832031 -7.882812 -43.476562 -6.984375 -44.695312 C -5.863281 -46.25 -5.769531 -47.148438 -6.664062 -47.242188 C -7.113281 -47.292969 -7.390625 -47.230469 -7.855469 -46.691406 C -8.957031 -45.722656 -11.460938 -41.824219 -12.269531 -40.1875 L -13.1875 -38.382812 C -13.484375 -37.738281 -13.78125 -37.089844 -13.859375 -36.78125 C -13.753906 -35.636719 -12.441406 -35.632812 -11.925781 -36.617188 Z M -11.925781 -36.617188 "/></g></g></g><g fill="#000000" fill-opacity="1"><g transform="translate(307.761352, 215.9906)"><g><path d="M -5.230469 -38.664062 C -4.640625 -38.644531 -4.085938 -38.765625 -3.558594 -39.027344 L -3.140625 -39.117188 C -3.140625 -39.117188 -0.757812 -40.222656 1.613281 -42.050781 L 8.757812 -47.402344 C 9.003906 -47.601562 8.914062 -48.019531 8.605469 -48.097656 L 8.433594 -48.207031 L 8.015625 -48.113281 L 7.769531 -47.914062 C 2.222656 -43.933594 -1.589844 -41.351562 -3.304688 -40.539062 C -3.304688 -40.539062 -4.992188 -39.589844 -5.253906 -40.117188 C -6.085938 -41.246094 -5.445312 -42.988281 -4.929688 -43.976562 C -4.527344 -44.792969 -3.5 -46.769531 -5.167969 -46.402344 C -5.445312 -46.34375 -5.894531 -46.390625 -5.925781 -46.53125 C -6.1875 -47.054688 -6.574219 -46.828125 -8.664062 -45.058594 C -10.511719 -43.488281 -12.789062 -41.242188 -14.15625 -39.484375 C -14.730469 -38.777344 -14.949219 -38.4375 -14.859375 -38.019531 C -14.707031 -37.324219 -14.257812 -37.277344 -13.421875 -37.457031 C -12.726562 -37.609375 -10.246094 -39.609375 -9.316406 -40.6875 C -8.414062 -41.90625 -6.820312 -43.273438 -6.789062 -43.132812 L -6.992188 -42.070312 C -7.179688 -41.589844 -7.199219 -41.003906 -7.105469 -40.585938 C -7.125 -40 -7.035156 -39.582031 -6.496094 -39.117188 C -6.125 -38.757812 -5.785156 -38.542969 -5.230469 -38.664062 Z M -13.417969 -38.769531 L -12.703125 -39.511719 C -12.050781 -40.527344 -10.160156 -42.542969 -8.53125 -43.773438 C -7.324219 -44.914062 -7.042969 -44.972656 -6.984375 -44.695312 C -6.953125 -44.554688 -7.308594 -44.1875 -7.695312 -43.957031 C -8.6875 -43.15625 -9.152344 -42.617188 -9.371094 -42.277344 C -9.589844 -41.941406 -11.652344 -40.03125 -12.644531 -39.230469 Z M -13.417969 -38.769531 "/></g></g></g><g clip-path="url(#8abc1a8842)"><g clip-path="url(#4810aa9e5f)"><g clip-path="url(#dff5ef2a7f)"><path fill="#000000" d="M 324.382812 206.890625 C 323.871094 207.003906 323.40625 207.121094 322.933594 207.210938 C 321.636719 207.460938 320.34375 207.726562 319.042969 207.929688 C 318.023438 208.089844 316.992188 208.160156 315.96875 208.28125 C 315.0625 208.382812 314.160156 208.511719 313.257812 208.609375 C 312.453125 208.691406 311.644531 208.742188 310.839844 208.820312 C 310.035156 208.894531 309.230469 208.988281 308.425781 209.066406 C 307.722656 209.136719 307.015625 209.195312 306.3125 209.253906 C 305.546875 209.316406 304.78125 209.375 304.015625 209.4375 C 303.292969 209.496094 302.566406 209.554688 301.839844 209.613281 C 301.117188 209.671875 300.390625 209.726562 299.664062 209.78125 C 298.941406 209.835938 298.214844 209.886719 297.488281 209.941406 C 296.804688 209.992188 296.121094 210.050781 295.433594 210.105469 C 294.730469 210.15625 294.023438 210.203125 293.320312 210.253906 C 292.636719 210.304688 291.949219 210.359375 291.265625 210.410156 C 290.316406 210.476562 289.371094 210.546875 288.421875 210.613281 C 287.71875 210.664062 287.011719 210.714844 286.308594 210.765625 C 285.382812 210.835938 284.453125 210.902344 283.527344 210.972656 C 282.800781 211.023438 282.078125 211.074219 281.351562 211.128906 C 280.6875 211.179688 280.019531 211.230469 279.355469 211.28125 C 278.347656 211.355469 277.339844 211.425781 276.335938 211.5 C 275.40625 211.566406 274.480469 211.632812 273.554688 211.703125 C 272.828125 211.753906 272.101562 211.804688 271.378906 211.863281 C 270.691406 211.917969 270.007812 211.984375 269.324219 212.039062 C 268.539062 212.105469 267.753906 212.160156 266.96875 212.21875 C 266.261719 212.269531 265.558594 212.308594 264.851562 212.363281 C 264.167969 212.414062 263.484375 212.476562 262.796875 212.53125 C 261.710938 212.617188 260.625 212.703125 259.535156 212.792969 C 258.832031 212.851562 258.128906 212.921875 257.421875 212.980469 C 256.65625 213.042969 255.890625 213.097656 255.125 213.160156 C 254.703125 213.195312 254.28125 213.246094 253.859375 213.285156 C 253.054688 213.355469 252.246094 213.414062 251.445312 213.488281 C 250.65625 213.558594 249.875 213.644531 249.089844 213.726562 C 248.285156 213.808594 247.480469 213.894531 246.675781 213.972656 C 246.152344 214.023438 245.628906 214.0625 245.105469 214.113281 C 244.242188 214.195312 243.375 214.277344 242.511719 214.363281 C 242.066406 214.40625 241.625 214.449219 241.183594 214.503906 C 240.320312 214.605469 239.457031 214.722656 238.59375 214.8125 C 237.707031 214.910156 236.820312 214.976562 235.9375 215.066406 C 235.472656 215.113281 235.011719 215.183594 234.550781 215.238281 C 233.40625 215.371094 232.261719 215.496094 231.117188 215.640625 C 230.472656 215.71875 229.835938 215.835938 229.191406 215.917969 C 228.570312 216 227.945312 216.050781 227.324219 216.125 C 226.800781 216.1875 226.28125 216.261719 225.757812 216.339844 C 225.039062 216.445312 224.320312 216.570312 223.597656 216.671875 C 222.855469 216.777344 222.113281 216.859375 221.371094 216.953125 C 221.308594 216.960938 221.25 216.972656 221.1875 216.980469 C 220.210938 217.152344 219.230469 217.335938 218.25 217.492188 C 217.390625 217.628906 216.527344 217.734375 215.664062 217.855469 C 215.605469 217.863281 215.546875 217.875 215.484375 217.886719 C 214.046875 218.160156 212.617188 218.457031 211.175781 218.699219 C 208.304688 219.179688 205.476562 219.863281 202.640625 220.492188 C 201.925781 220.652344 201.210938 220.8125 200.5 220.992188 C 199.515625 221.242188 198.535156 221.5 197.558594 221.78125 C 196.546875 222.070312 195.539062 222.371094 194.539062 222.699219 C 193.695312 222.976562 192.875 223.328125 192.03125 223.609375 C 190.109375 224.253906 188.265625 225.070312 186.476562 226.007812 C 184.65625 226.960938 182.921875 228.050781 181.511719 229.578125 C 180.933594 230.203125 180.421875 230.890625 180.097656 231.691406 C 179.539062 233.066406 179.605469 234.398438 180.433594 235.636719 C 181.011719 236.507812 181.761719 237.203125 182.710938 237.699219 C 183.542969 238.136719 184.386719 238.527344 185.296875 238.75 C 186.660156 239.078125 188.039062 239.183594 189.453125 239.035156 C 190.226562 238.953125 190.894531 238.675781 191.578125 238.382812 C 191.828125 238.277344 192.042969 238.0625 192.242188 237.863281 C 192.398438 237.707031 192.417969 237.492188 192.273438 237.304688 C 192.125 237.109375 191.921875 237.136719 191.71875 237.210938 C 191.679688 237.226562 191.644531 237.246094 191.613281 237.269531 C 190.59375 238.082031 189.382812 238.148438 188.15625 238.175781 C 186.542969 238.207031 185.019531 237.8125 183.578125 237.117188 C 182.65625 236.675781 181.84375 236.066406 181.257812 235.195312 C 180.460938 234.007812 180.523438 232.804688 181.183594 231.589844 C 181.875 230.324219 182.941406 229.417969 184.074219 228.578125 C 185.414062 227.589844 186.890625 226.832031 188.394531 226.132812 C 189.4375 225.652344 190.535156 225.289062 191.605469 224.863281 C 192.65625 224.441406 193.734375 224.089844 194.816406 223.753906 C 195.976562 223.390625 197.140625 223.054688 198.3125 222.722656 C 202.070312 221.652344 205.914062 220.945312 209.722656 220.082031 C 210.671875 219.867188 211.636719 219.726562 212.597656 219.558594 C 213.253906 219.445312 213.914062 219.335938 214.578125 219.238281 C 215.476562 219.101562 216.378906 218.980469 217.28125 218.851562 C 217.34375 218.839844 217.402344 218.828125 217.460938 218.820312 C 218.382812 218.664062 219.300781 218.492188 220.222656 218.351562 C 220.839844 218.257812 221.46875 218.214844 222.089844 218.144531 C 222.191406 218.132812 222.289062 218.113281 222.390625 218.097656 C 223.292969 217.976562 224.195312 217.859375 225.097656 217.730469 C 225.757812 217.640625 226.417969 217.523438 227.082031 217.4375 C 227.621094 217.371094 228.167969 217.335938 228.710938 217.273438 C 229.253906 217.214844 229.792969 217.136719 230.335938 217.074219 C 231.460938 216.941406 232.585938 216.816406 233.710938 216.683594 C 234.59375 216.578125 235.476562 216.457031 236.359375 216.363281 C 237.203125 216.273438 238.050781 216.214844 238.894531 216.132812 C 239.359375 216.089844 239.820312 216.023438 240.285156 215.976562 C 241.148438 215.894531 242.011719 215.816406 242.878906 215.734375 C 243.640625 215.660156 244.40625 215.582031 245.171875 215.511719 C 245.996094 215.433594 246.820312 215.359375 247.644531 215.289062 C 248.371094 215.222656 249.09375 215.152344 249.820312 215.09375 C 250.585938 215.03125 251.351562 214.980469 252.113281 214.917969 C 252.820312 214.859375 253.523438 214.792969 254.230469 214.730469 C 254.933594 214.664062 255.636719 214.597656 256.34375 214.539062 C 257.167969 214.46875 257.992188 214.398438 258.820312 214.335938 C 259.765625 214.265625 260.710938 214.214844 261.660156 214.148438 C 262.34375 214.097656 263.027344 214.039062 263.714844 213.984375 C 264.398438 213.933594 265.082031 213.875 265.769531 213.824219 C 266.492188 213.769531 267.21875 213.71875 267.945312 213.667969 C 268.890625 213.605469 269.839844 213.554688 270.785156 213.488281 C 271.730469 213.421875 272.679688 213.339844 273.625 213.273438 C 274.8125 213.195312 276.003906 213.132812 277.191406 213.054688 C 278.140625 212.992188 279.085938 212.910156 280.035156 212.839844 C 280.878906 212.777344 281.726562 212.71875 282.574219 212.667969 C 283.5 212.613281 284.429688 212.570312 285.355469 212.511719 C 286.605469 212.4375 287.855469 212.363281 289.105469 212.273438 C 290.335938 212.1875 291.5625 212.074219 292.792969 211.988281 C 294.222656 211.894531 295.65625 211.828125 297.085938 211.734375 C 298.054688 211.667969 299.019531 211.570312 299.988281 211.5 C 300.996094 211.425781 302.003906 211.371094 303.007812 211.292969 C 303.976562 211.21875 304.941406 211.125 305.910156 211.050781 C 306.957031 210.96875 308.003906 210.902344 309.050781 210.816406 C 309.757812 210.761719 310.460938 210.683594 311.164062 210.617188 C 312.007812 210.539062 312.855469 210.472656 313.699219 210.394531 C 314.125 210.355469 314.546875 210.304688 314.96875 210.257812 C 316.09375 210.128906 317.21875 210.015625 318.34375 209.867188 C 319.125 209.765625 319.902344 209.574219 320.6875 209.503906 C 321.992188 209.386719 323.246094 209.039062 324.507812 208.742188 C 325.074219 208.613281 325.617188 208.363281 326.144531 208.109375 C 326.386719 207.992188 326.605469 207.765625 326.761719 207.539062 C 327.175781 206.929688 327.007812 206.203125 326.375 205.71875 C 325.945312 205.398438 325.464844 205.191406 324.953125 205.039062 C 323.605469 204.644531 322.234375 204.382812 320.851562 204.15625 C 318.269531 203.738281 315.667969 203.496094 313.066406 203.234375 C 309.140625 202.839844 305.207031 202.570312 301.261719 202.394531 C 298.554688 202.273438 295.847656 202.273438 293.136719 202.34375 C 291.339844 202.386719 289.542969 202.410156 287.746094 202.472656 C 286.472656 202.515625 285.203125 202.59375 283.933594 202.683594 C 283.351562 202.726562 282.820312 202.894531 282.519531 203.488281 C 282.167969 204.191406 282.5 205.0625 283.242188 205.347656 C 283.640625 205.5 284.046875 205.445312 284.445312 205.425781 C 286.019531 205.359375 287.59375 205.230469 289.167969 205.171875 C 290.90625 205.105469 292.644531 205.082031 294.378906 205.0625 C 297.191406 205.027344 300 204.988281 302.808594 205.003906 C 305.292969 205.019531 307.777344 205.113281 310.265625 205.160156 C 312.855469 205.210938 315.4375 205.386719 318.011719 205.691406 C 319.945312 205.921875 321.875 206.160156 323.769531 206.632812 C 323.925781 206.671875 324.082031 206.714844 324.238281 206.761719 C 324.269531 206.773438 324.296875 206.8125 324.382812 206.890625 Z M 324.382812 206.890625 " fill-opacity="1" fill-rule="nonzero"/></g></g></g></svg>